<svg width="100" height="17" viewBox="0 0 100 17" fill="none" xmlns="http://www.w3.org/2000/svg">
<path d="M33.9579 2.24345V0H46.9769V2.24345H33.9579ZM39.1725 16.8061V1.37552H41.7595V16.8061H39.1725Z" fill="#4657A3"/>
<path d="M51.9518 16.9797C50.3349 16.9797 49.1251 16.6746 48.3167 16.0671C47.5082 15.4595 47.104 14.5258 47.104 13.2713C47.104 12.0168 47.4736 11.1857 48.2156 10.5965C48.9548 10.0074 50.0664 9.71282 51.5476 9.71282H55.2896L55.4686 11.6091H51.5592C50.8922 11.6091 50.3869 11.7459 50.0491 12.0194C49.7113 12.2929 49.5409 12.7111 49.5409 13.2739C49.5409 13.8815 49.7661 14.3339 50.2137 14.6258C50.6612 14.9177 51.334 15.065 52.2319 15.065C53.2136 15.065 53.9499 14.9677 54.4407 14.7757C54.9316 14.5837 55.177 14.2813 55.177 13.8736L55.4426 15.5621C55.2145 15.8856 54.9316 16.1512 54.5938 16.359C54.2559 16.5668 53.869 16.722 53.433 16.8272C52.9971 16.9297 52.5033 16.9823 51.9547 16.9823L51.9518 16.9797ZM55.1741 16.8061V9.19995C55.1741 8.41356 54.9431 7.80339 54.4812 7.36943C54.0192 6.93283 53.3666 6.71717 52.5206 6.71717C52.0038 6.71717 51.4956 6.78819 50.9904 6.93021C50.488 7.07223 50.0375 7.28 49.6391 7.54827L47.7479 6.37C48.2474 5.82295 48.9057 5.39687 49.7199 5.09178C50.537 4.7867 51.4437 4.63416 52.4427 4.63416C54.0914 4.63416 55.3705 5.02341 56.2742 5.80191C57.1779 6.58041 57.6312 7.67714 57.6312 9.09475V16.8035H55.1683L55.1741 16.8061Z" fill="#4657A3"/>
<path d="M64.9189 16.8061L58.9045 0H61.7226L66.1518 13.1766L70.5809 0H73.399L67.3847 16.8061H64.9217H64.9189Z" fill="#4657A3"/>
<path d="M77.7589 4.80774V12.1009C77.7589 12.9399 77.9928 13.5895 78.4634 14.0498C78.9311 14.5074 79.5952 14.7363 80.4499 14.7363C81.3045 14.7363 81.9628 14.5311 82.4219 14.1182C82.8839 13.7053 83.112 13.1267 83.112 12.3797L83.291 14.8888C83.0543 15.428 82.6385 15.9119 82.0466 16.3406C81.4547 16.7667 80.6809 16.9823 79.7252 16.9823C78.2699 16.9823 77.1468 16.5563 76.3556 15.7041C75.5645 14.852 75.1689 13.6527 75.1689 12.1035V4.81037H77.756L77.7589 4.80774ZM83.112 16.8061V4.80774H85.6875V16.8061H83.112Z" fill="#4657A3"/>
<path d="M95.0164 16.9797C93.1801 16.9797 91.7595 16.5142 90.7518 15.5805C89.7442 14.6468 89.2418 13.3239 89.2418 11.6038V10.252C89.2418 8.46353 89.7268 7.08012 90.6941 6.10173C91.6613 5.12334 93.0271 4.63416 94.7854 4.63416C96.4428 4.63416 97.7276 5.1891 98.6372 6.29899C99.5467 7.40888 100 8.96588 100 10.9674V11.7538H91.1185V9.85747H97.54C97.4649 8.88697 97.1877 8.12689 96.7084 7.57984C96.2291 7.03278 95.591 6.75925 94.7854 6.75925C93.8124 6.75925 93.0559 7.05119 92.5131 7.6377C91.9703 8.2242 91.7018 9.05267 91.7018 10.1231V11.6486C91.7018 12.6427 91.9905 13.4054 92.5709 13.9367C93.1512 14.468 93.9654 14.7336 95.0135 14.7336C95.539 14.7336 96.0588 14.6363 96.5756 14.4443C97.0924 14.2523 97.5515 13.9814 97.9586 13.6343L99.6593 15.1834C99.0067 15.7541 98.2762 16.1959 97.4649 16.5063C96.6536 16.8193 95.8364 16.9744 95.0164 16.9744V16.9797Z" fill="#4657A3"/>
<path d="M10.8879 10C10.8879 11.5458 12.2822 12.8005 14 12.8005C15.7178 12.8005 17.1121 11.5458 17.1121 10C17.1121 8.45418 15.7178 7.19948 14 7.19948C12.2822 7.19948 10.8879 8.45418 10.8879 10ZM14 3C4.47198 3 0 10 0 10C0 10 4.56933 17 14 17C23.4307 17 28 10 28 10C28 10 23.4307 3 14 3ZM14 15.5985C10.5701 15.5985 7.77873 13.0865 7.77873 10C7.77873 6.91351 10.5701 4.40155 14 4.40155C17.4299 4.40155 20.2213 6.91351 20.2213 10C20.2213 13.0865 17.4299 15.5985 14 15.5985Z" fill="#4657A3"/>
</svg>
