<svg width="29" height="32" viewBox="0 0 29 32" fill="none" xmlns="http://www.w3.org/2000/svg">
<path d="M9.4375 14.3333V6C9.4375 3.23858 11.704 1 14.5 1C17.296 1 19.5625 3.23858 19.5625 6V14.2788M11.8 31H17.2C20.9803 31 22.8705 31 24.3145 30.2733C25.5845 29.6342 26.6171 28.6143 27.2642 27.36C28 25.9338 28 24.067 28 20.3333V16.3333C28 14.4665 28 13.533 27.6321 12.82C27.3086 12.1928 26.7923 11.6829 26.1573 11.3633C25.4353 11 24.4902 11 22.6 11H6.4C4.50983 11 3.56473 11 2.84278 11.3633C2.20773 11.6829 1.69142 12.1928 1.36786 12.82C1 13.533 1 14.4665 1 16.3333V20.3333C1 24.067 1 25.9338 1.7357 27.36C2.38286 28.6143 3.41547 29.6342 4.68557 30.2733C6.12946 31 8.01964 31 11.8 31Z" stroke="black" stroke-width="2" stroke-linecap="round" stroke-linejoin="round"/>
</svg>
